Normalized EMG Linear Envelopes
nRows=230
nColumns=4

endheader
time	 med_gas_r	  soleus_r	 tib_ant_r	
6.81956	  0.029349	  0.089614	  0.005777	
6.85282	  0.029383	  0.090097	  0.005810	
6.88609	  0.029172	  0.090410	  0.005793	
6.91935	  0.028891	  0.091237	  0.005703	
6.95262	  0.028619	  0.092695	  0.005561	
6.98589	  0.028303	  0.094900	  0.005394	
7.01915	  0.027960	  0.097781	  0.005224	
7.05242	  0.027780	  0.100938	  0.005094	
7.08569	  0.027837	  0.104199	  0.005026	
7.11895	  0.028030	  0.106576	  0.005018	
7.15222	  0.028244	  0.107177	  0.005067	
7.18548	  0.028477	  0.106003	  0.005148	
7.21875	  0.028822	  0.103958	  0.005203	
7.25202	  0.029335	  0.102047	  0.005180	
7.28528	  0.030014	  0.100503	  0.005094	
7.31855	  0.030723	  0.098680	  0.004982	
7.35181	  0.031241	  0.096182	  0.004892	
7.38508	  0.031354	  0.094069	  0.004849	
7.41835	  0.030997	  0.093007	  0.004860	
7.45161	  0.030339	  0.092802	  0.004923	
7.48488	  0.029630	  0.092984	  0.005017	
7.51815	  0.029062	  0.093464	  0.005102	
7.55141	  0.028595	  0.095443	  0.005143	
7.58468	  0.028047	  0.099196	  0.005155	
7.61794	  0.027246	  0.103948	  0.005162	
7.65121	  0.026359	  0.108799	  0.005166	
7.68448	  0.025676	  0.113201	  0.005145	
7.71774	  0.025385	  0.116978	  0.005095	
7.75101	  0.025450	  0.119655	  0.005024	
7.78427	  0.025617	  0.119945	  0.004947	
7.81754	  0.025804	  0.117237	  0.004890	
7.85081	  0.026107	  0.113215	  0.004875	
7.88407	  0.026526	  0.109048	  0.004910	
7.91734	  0.026917	  0.105352	  0.004984	
7.9506	  0.027184	  0.102518	  0.005096	
7.98387	  0.027114	  0.100670	  0.005229	
8.01714	  0.026623	  0.100182	  0.005349	
8.0504	  0.025963	  0.100619	  0.005467	
8.08367	  0.025439	  0.100906	  0.005592	
8.11694	  0.025295	  0.100907	  0.005692	
8.1502	  0.025580	  0.101396	  0.005737	
8.18347	  0.026092	  0.102343	  0.005707	
8.21673	  0.026592	  0.103096	  0.005591	
8.25	  0.027020	  0.103161	  0.005388	
8.28327	  0.027385	  0.102772	  0.005106	
8.31653	  0.027650	  0.102685	  0.004784	
8.3498	  0.027660	  0.102872	  0.004493	
8.38306	  0.027431	  0.102872	  0.004331	
8.41633	  0.027278	  0.102140	  0.004432	
8.4496	  0.027508	  0.101498	  0.004935	
8.48286	  0.028311	  0.101857	  0.006005	
8.51613	  0.029642	  0.102902	  0.007876	
8.5494	  0.031224	  0.103579	  0.010763	
8.58266	  0.032914	  0.103518	  0.014787	
8.61593	  0.034944	  0.102741	  0.019924	
8.64919	  0.037568	  0.101386	  0.025865	
8.68246	  0.040572	  0.099714	  0.031825	
8.71573	  0.043189	  0.097428	  0.036451	
8.74899	  0.044482	  0.094294	  0.038538	
8.78226	  0.044340	  0.091186	  0.038219	
8.81552	  0.043745	  0.089090	  0.036897	
8.84879	  0.043619	  0.088617	  0.035630	
8.88206	  0.044616	  0.089820	  0.034749	
8.91532	  0.046999	  0.092763	  0.034407	
8.94859	  0.050473	  0.097728	  0.034377	
8.98185	  0.054605	  0.104694	  0.033955	
9.01512	  0.059404	  0.113524	  0.032647	
9.04839	  0.065179	  0.124879	  0.030897	
9.08165	  0.072054	  0.140725	  0.029566	
9.11492	  0.080313	  0.161673	  0.029143	
9.14819	  0.089954	  0.186317	  0.029603	
9.18145	  0.100054	  0.211841	  0.030582	
9.21472	  0.109363	  0.236365	  0.031637	
9.24798	  0.117582	  0.259282	  0.032180	
9.28125	  0.124005	  0.279619	  0.032182	
9.31452	  0.128682	  0.297599	  0.031915	
9.34778	  0.132860	  0.315635	  0.031582	
9.38105	  0.138187	  0.334500	  0.031407	
9.41431	  0.145357	  0.354489	  0.031512	
9.44758	  0.153887	  0.375487	  0.031804	
9.48085	  0.162613	  0.395538	  0.032002	
9.51411	  0.170105	  0.412016	  0.031876	
9.54738	  0.174307	  0.423507	  0.031545	
9.58065	  0.174367	  0.430477	  0.031240	
9.61391	  0.171925	  0.433627	  0.031111	
9.64718	  0.168968	  0.435615	  0.031274	
9.68044	  0.166397	  0.439545	  0.031851	
9.71371	  0.164651	  0.445079	  0.032865	
9.74698	  0.164535	  0.449252	  0.034172	
9.78024	  0.166607	  0.451590	  0.035558	
9.81351	  0.169782	  0.454250	  0.036907	
9.84677	  0.172159	  0.459393	  0.038117	
9.88004	  0.173098	  0.467089	  0.038958	
9.91331	  0.172816	  0.474622	  0.039396	
9.94657	  0.171581	  0.481707	  0.039613	
9.97984	  0.169979	  0.490558	  0.039693	
10.0131	  0.168529	  0.501641	  0.039772	
10.0464	  0.167559	  0.512826	  0.040016	
10.0796	  0.166690	  0.522386	  0.040402	
10.1129	  0.165872	  0.532177	  0.040792	
10.1462	  0.165500	  0.543651	  0.040996	
10.1794	  0.165791	  0.554969	  0.041002	
10.2127	  0.166892	  0.564519	  0.041006	
10.246	  0.168543	  0.572488	  0.041209	
10.2792	  0.170857	  0.578919	  0.041609	
10.3125	  0.173873	  0.583751	  0.041936	
10.3458	  0.177584	  0.587271	  0.041645	
10.379	  0.181437	  0.589765	  0.040607	
10.4123	  0.185052	  0.590432	  0.039170	
10.4456	  0.188044	  0.591160	  0.037742	
10.4788	  0.190635	  0.594566	  0.036633	
10.5121	  0.193699	  0.601419	  0.036079	
10.5454	  0.197893	  0.609864	  0.036243	
10.5786	  0.202488	  0.615966	  0.037069	
10.6119	  0.205931	  0.618027	  0.038325	
10.6452	  0.207270	  0.619402	  0.039758	
10.6784	  0.206992	  0.621384	  0.041098	
10.7117	  0.206160	  0.625023	  0.042267	
10.745	  0.205467	  0.633111	  0.043162	
10.7782	  0.205241	  0.646225	  0.043885	
10.8115	  0.205287	  0.663017	  0.044390	
10.8448	  0.205483	  0.682387	  0.044600	
10.878	  0.206118	  0.705321	  0.044584	
10.9113	  0.207418	  0.732051	  0.044331	
10.9446	  0.209592	  0.755914	  0.043914	
10.9778	  0.211851	  0.769841	  0.043626	
11.0111	  0.214006	  0.772438	  0.043655	
11.0444	  0.215708	  0.765256	  0.044054	
11.0776	  0.215601	  0.752298	  0.044645	
11.1109	  0.212838	  0.732999	  0.045106	
11.1442	  0.208408	  0.707899	  0.045325	
11.1774	  0.203507	  0.681101	  0.045343	
11.2107	  0.198952	  0.653513	  0.045284	
11.244	  0.195798	  0.626785	  0.045214	
11.2772	  0.194694	  0.605861	  0.045100	
11.3105	  0.195194	  0.595191	  0.044851	
11.3437	  0.197091	  0.597333	  0.044570	
11.377	  0.199581	  0.609689	  0.044353	
11.4103	  0.201923	  0.625833	  0.044218	
11.4435	  0.204451	  0.639518	  0.044096	
11.4768	  0.207521	  0.647322	  0.043971	
11.5101	  0.211221	  0.648603	  0.043937	
11.5433	  0.215047	  0.645500	  0.043859	
11.5766	  0.217494	  0.640313	  0.043563	
11.6099	  0.217570	  0.632657	  0.043027	
11.6431	  0.215055	  0.620790	  0.042303	
11.6764	  0.210690	  0.606318	  0.041559	
11.7097	  0.205054	  0.591386	  0.040886	
11.7429	  0.198483	  0.576276	  0.040471	
11.7762	  0.192294	  0.563059	  0.040488	
11.8095	  0.188246	  0.555989	  0.040945	
11.8427	  0.187676	  0.558580	  0.041651	
11.876	  0.190510	  0.570718	  0.042253	
11.9093	  0.195577	  0.586576	  0.042688	
11.9425	  0.202046	  0.598667	  0.042990	
11.9758	  0.209269	  0.604592	  0.043043	
12.0091	  0.216607	  0.606109	  0.042702	
12.0423	  0.222527	  0.603093	  0.041828	
12.0756	  0.225887	  0.594940	  0.040584	
12.1089	  0.225688	  0.584270	  0.039317	
12.1421	  0.222439	  0.575087	  0.038250	
12.1754	  0.218420	  0.572101	  0.037499	
12.2087	  0.214688	  0.574845	  0.037055	
12.2419	  0.210012	  0.576371	  0.036975	
12.2752	  0.203088	  0.570475	  0.037183	
12.3085	  0.194437	  0.553385	  0.037522	
12.3417	  0.184490	  0.523970	  0.037658	
12.375	  0.173192	  0.482783	  0.037510	
12.4083	  0.161008	  0.435263	  0.037228	
12.4415	  0.148827	  0.389516	  0.036901	
12.4748	  0.137498	  0.350118	  0.036565	
12.5081	  0.126982	  0.319624	  0.036139	
12.5413	  0.117381	  0.298331	  0.035726	
12.5746	  0.108988	  0.285155	  0.035516	
12.6079	  0.101915	  0.278914	  0.035443	
12.6411	  0.095612	  0.278315	  0.035275	
12.6744	  0.089650	  0.279746	  0.034648	
12.7077	  0.084286	  0.279047	  0.033298	
12.7409	  0.079886	  0.277256	  0.031449	
12.7742	  0.076576	  0.277926	  0.029531	
12.8075	  0.074149	  0.280384	  0.027797	
12.8407	  0.072203	  0.279544	  0.026150	
12.874	  0.070650	  0.271385	  0.024312	
12.9073	  0.069580	  0.257409	  0.022192	
12.9405	  0.068642	  0.242881	  0.019900	
12.9738	  0.067529	  0.230056	  0.017651	
13.0071	  0.065976	  0.218418	  0.015630	
13.0403	  0.063697	  0.207604	  0.014042	
13.0736	  0.060932	  0.198257	  0.013052	
13.1069	  0.058099	  0.189719	  0.012637	
13.1401	  0.055565	  0.180987	  0.012652	
13.1734	  0.053277	  0.171334	  0.012962	
13.2067	  0.050995	  0.161682	  0.013489	
13.2399	  0.048586	  0.153977	  0.014130	
13.2732	  0.046191	  0.149549	  0.014669	
13.3065	  0.044017	  0.148660	  0.014800	
13.3397	  0.042275	  0.150297	  0.014350	
13.373	  0.040985	  0.153190	  0.013491	
13.4062	  0.040063	  0.155374	  0.012469	
13.4395	  0.039291	  0.154322	  0.011462	
13.4728	  0.038423	  0.149295	  0.010586	
13.506	  0.037446	  0.141664	  0.009903	
13.5393	  0.036586	  0.132765	  0.009389	
13.5726	  0.035854	  0.123122	  0.008992	
13.6058	  0.035320	  0.114071	  0.008643	
13.6391	  0.035065	  0.106696	  0.008263	
13.6724	  0.034989	  0.101106	  0.007834	
13.7056	  0.034879	  0.096894	  0.007386	
13.7389	  0.034701	  0.093071	  0.006957	
13.7722	  0.034472	  0.089033	  0.006589	
13.8054	  0.034137	  0.084826	  0.006301	
13.8387	  0.033788	  0.080578	  0.006081	
13.872	  0.033439	  0.076952	  0.005902	
13.9052	  0.033032	  0.074644	  0.005776	
13.9385	  0.032542	  0.073756	  0.005721	
13.9718	  0.032079	  0.074231	  0.005700	
14.005	  0.031663	  0.075717	  0.005658	
14.0383	  0.031047	  0.077804	  0.005588	
14.0716	  0.030172	  0.079871	  0.005540	
14.1048	  0.029279	  0.080637	  0.005549	
14.1381	  0.028664	  0.079081	  0.005611	
14.1714	  0.028363	  0.075550	  0.005686	
14.2046	  0.028248	  0.071347	  0.005744	
14.2379	  0.028179	  0.067203	  0.005785	
14.2712	  0.028080	  0.063463	  0.005838	
14.3044	  0.027883	  0.060410	  0.005928	
14.3377	  0.027616	  0.057987	  0.006054	
14.371	  0.027355	  0.056296	  0.006215	
14.4042	  0.026999	  0.055464	  0.006392	
14.4375	  0.026424	  0.055311	  0.006559	
